<svg xmlns="http://www.w3.org/2000/svg" width="182.571" height="141.574" viewBox="0 0 182.571 141.574"><g transform="translate(-95.375 -120.348)"><path d="M95.32,41.372l-12.031-.016L86.1,37.349l-4.688-2.793-4.771,6.791-5.432-.007V38.265H65.627v3.067l-5.739-.008-2.009-3.2L70.141,26.845l8.584,1.713,1.183-5.025-5.066-1.011,8.514-7.828-3.946-3.639L70.9,18.883l-1.09-4.665L64.348,15.3,66.2,23.206,54.989,33.51l-.412-.658h-4.12V27.337h3.3V22.2h-3.3v-5l7.382-4.383L54.811,8.492l-4.355,2.586V0H44.872V11.079L40.516,8.492,37.49,12.814,44.872,17.2v5h-3.3v5.142h3.3v5.515H40.75l-.372.593L29.266,23.105l1.9-7.9L25.713,14.1l-1.121,4.66-8.463-7.875L12.161,14.5l8.463,7.875-5.072.983,1.15,5.032,8.6-1.666,12.187,11.34-2,3.2-5.78-.024V38.264H24.116V41.21L18.7,41.187l-4.727-6.817L9.267,37.138l2.789,4.022L.025,41.111,0,46.253l12.031.05L9.2,50.3l4.68,2.806,4.792-6.778,5.441.023v3.139H29.7V46.375l5.717.023,2.012,3.21-12.3,11.241-8.579-1.736-1.2,5.022,5.062,1.025-8.538,7.8,3.934,3.65,8.539-7.8,1.075,4.668,5.463-1.067L29.065,64.5,40.318,54.214l.433.69h4.085l-.017,5.515H41.568v5.142H44.8l-.016,4.991-7.4,4.363,3.012,4.33,4.365-2.574L44.73,87.749l5.584.015.036-11.078,4.348,2.6,3.04-4.313-7.368-4.4.016-5.006H53.76V60.419H50.4L50.42,54.9h4.156l.392-.625L66.129,64.6l-1.873,7.9,5.456,1.1,1.105-4.663,8.489,7.851,3.957-3.628-8.488-7.851,5.069-1-1.167-5.029-8.589,1.689L57.861,49.665l2.006-3.2,5.76.007v3.018h5.584V46.482l5.424.007,4.749,6.8,4.7-2.78L83.28,46.5l12.031.017ZM43.975,49.761l-3.689-5.883,3.689-5.883h7.378l3.689,5.883-3.689,5.883Zm0,0" transform="matrix(0.914, 0.407, -0.407, 0.914, 131.072, 136.875)" fill="#29a5a5"/><path d="M55.368,27.841l-6.989-.011,1.635-2.7-2.723-1.88-2.772,4.57-3.156,0V25.75H38.12v2.064l-3.333-.005L33.62,25.652l7.122-7.587,4.986,1.153.687-3.381-2.943-.68,4.946-5.268L46.127,7.439l-4.945,5.268-.633-3.139-3.171.728,1.073,5.321-6.51,6.934-.24-.443H29.308V18.4h1.919v-3.46H29.308V11.572L33.6,8.623,31.838,5.715l-2.53,1.74V0H26.064V7.455l-2.53-1.74L21.776,8.623l4.288,2.95v3.363H24.145V18.4h1.919v3.711H23.671l-.216.4L17,15.548l1.1-5.314-3.167-.748-.651,3.136-4.916-5.3L7.064,9.756l4.916,5.3-2.946.662L9.7,19.1l4.993-1.121,7.079,7.631-1.164,2.15-3.357-.016v-2H14.008v1.982l-3.146-.015L8.117,23.129,5.383,24.991,7,27.7.014,27.665,0,31.125l6.989.033L5.346,33.85l2.718,1.888,2.784-4.561,3.161.015V33.3h3.244v-2.1l3.321.016,1.169,2.16L14.6,40.947,9.615,39.779l-.7,3.379,2.94.69L6.9,49.1l2.285,2.456,4.96-5.252.624,3.141,3.173-.718L16.883,43.4l6.537-6.921.251.464h2.373l-.01,3.711H24.145v3.46h1.879l-.009,3.358-4.3,2.936,1.75,2.914L26,51.594l-.021,7.455,3.244.01.021-7.455,2.526,1.748,1.766-2.9-4.28-2.964.009-3.369h1.96v-3.46h-1.95l.011-3.711H31.7l.228-.421,6.483,6.946-1.088,5.317,3.169.738.642-3.138,4.931,5.283,2.3-2.441-4.931-5.283,2.944-.671L45.7,39.893,40.711,41.03l-7.1-7.609,1.165-2.153,3.346,0V33.3h3.244V31.279l3.151,0,2.758,4.579L50,33.992l-1.628-2.7,6.989.011ZM25.544,33.486,23.4,29.527l2.143-3.959h4.285l2.143,3.959-2.143,3.959Zm0,0" transform="matrix(0.914, 0.407, -0.407, 0.914, 211.894, 120.348)" fill="#29a5a5"/><path d="M60.417,26.744l-7.626-.01,1.784-2.59L51.6,22.338l-3.024,4.39-3.443,0V24.736H41.6v1.983l-3.637-.005-1.274-2.072,7.772-7.288L49.9,18.461l.75-3.248-3.211-.654,5.4-5.06-2.5-2.352-5.4,5.06-.691-3.016-3.46.7L41.957,15l-7.1,6.661-.261-.425H31.981V17.672h2.094V14.348H31.981V11.117L36.66,8.283,34.741,5.49,31.981,7.162V0h-3.54V7.162L25.68,5.49,23.762,8.283l4.679,2.834v3.231H26.347v3.324h2.094v3.565H25.829l-.236.383L18.55,14.936l1.2-5.1L16.3,9.113l-.71,3.012L10.223,7.034,7.708,9.372l5.364,5.091L9.857,15.1l.729,3.253,5.448-1.077,7.724,7.33-1.27,2.066-3.664-.016V24.735h-3.54v1.9l-3.433-.015-3-4.407L5.874,24.007l1.768,2.6L.016,26.576,0,29.9l7.626.032L5.833,32.517,8.8,34.33l3.038-4.382,3.449.015v2.029h3.54V29.978l3.624.015,1.275,2.075-7.8,7.267-5.438-1.122-.76,3.246,3.208.663L7.528,47.166l2.493,2.36,5.412-5.045.681,3.018,3.463-.69-1.155-5.114,7.133-6.649.274.446h2.589l-.011,3.565h-2.06v3.324H28.4l-.01,3.226L23.7,48.427l1.909,2.8,2.767-1.664-.023,7.161,3.54.01.023-7.161,2.756,1.68L36.6,48.463l-4.67-2.847.01-3.236h2.139V39.057H31.947l.012-3.565h2.634l.248-.4,7.074,6.673-1.187,5.108,3.458.709.7-3.014,5.381,5.075,2.508-2.345-5.38-5.075,3.213-.645-.74-3.251-5.444,1.092-7.748-7.309,1.272-2.068,3.651,0v1.951h3.54V30.047l3.438,0,3.01,4.4,2.977-1.8-1.776-2.6,7.626.011ZM27.873,32.167l-2.338-3.8,2.338-3.8h4.676l2.338,3.8-2.338,3.8Zm0,0" transform="matrix(0.174, -0.985, 0.985, 0.174, 211.583, 252.071)" fill="#29a5a5"/></g></svg>