<svg xmlns="http://www.w3.org/2000/svg" xmlns:xlink="http://www.w3.org/1999/xlink" width="192.5" height="118.292" viewBox="0 0 192.5 118.292"><defs><linearGradient id="a" x1="0.719" y1="0.89" x2="0.219" y2="0.315" gradientUnits="objectBoundingBox"><stop offset="0" stop-color="#c8a152"/><stop offset="1" stop-color="#d6a0a0"/></linearGradient></defs><g transform="translate(-91.5 -164)"><g transform="translate(184 164)" stroke="#fff" stroke-width="1" fill="url(#a)"><ellipse cx="50" cy="45" rx="50" ry="45" stroke="none"/><ellipse cx="50" cy="45" rx="49.5" ry="44.5" fill="none"/></g><g transform="translate(111 183)"><path d="M0,0H144.228V99.292H0Z" fill="none"/><path d="M116.344,38.463C112.2,18.778,93.989,4,72.114,4,54.747,4,39.663,13.357,32.151,27.051,14.062,28.877,0,43.427,0,61.058,0,79.944,16.166,95.292,36.057,95.292h78.124c16.586,0,30.048-12.781,30.048-28.529C144.228,51.7,131.909,39.49,116.344,38.463Z" transform="translate(-19 -16)" fill="#fff" stroke="#707070" stroke-width="1"/></g></g></svg>