<?xml version="1.0" encoding="utf-8"?>
<!-- Generator: Adobe Illustrator 24.1.2, SVG Export Plug-In . SVG Version: 6.00 Build 0)  -->
<svg version="1.1" id="Layer_1" xmlns="http://www.w3.org/2000/svg" xmlns:xlink="http://www.w3.org/1999/xlink" x="0px" y="0px"
	 viewBox="0 0 215 116.3" style="enable-background:new 0 0 215 116.3;" xml:space="preserve">
<style type="text/css">
	.st0{fill:url(#SVGID_1_);}
	.st1{fill:#FFFFFF;}
</style>
<g transform="translate(-82 -51)">
	
		<linearGradient id="SVGID_1_" gradientUnits="userSpaceOnUse" x1="-113.0198" y1="501.172" x2="-112.6248" y2="500.172" gradientTransform="matrix(77.433 0 0 -73.2642 8979.7275 36785.707)">
		<stop  offset="0" style="stop-color:#C8A152"/>
		<stop  offset="1" style="stop-color:#D6A0A0"/>
	</linearGradient>
	<path class="st0" d="M233.3,61c-8.8,0-17.6,1.6-25.8,4.9c15.4,6.3,25.8,18.1,25.8,31.7S223,123,207.5,129.3c8.2,3.3,17,5,25.8,4.9
		c28.5,0,51.6-16.4,51.6-36.6S261.8,61,233.3,61z"/>
</g>
<path class="st1" d="M128.4,49.5C124.2,29.8,106,15,84.1,15c-17.4,0-32.5,9.4-40,23.1C26.1,39.9,12,54.4,12,72.1
	c0,18.9,16.2,34.2,36.1,34.2h78.1c16.6,0,30-12.8,30-28.5C156.3,62.7,143.9,50.5,128.4,49.5z"/>
</svg>
