<svg width="181.433" height="117.292" xmlns="http://www.w3.org/2000/svg">
 <defs>
  <linearGradient gradientUnits="objectBoundingBox" y2="1" x2="0.895" x1="0.5" id="a">
   <stop stop-color="#c8a152" offset="0"/>
   <stop stop-color="#d6a0a0" offset="1"/>
  </linearGradient>
  <linearGradient gradientUnits="objectBoundingBox" y2="1" x2="0.895" x1="0.5" id="svg_6">
   <stop stop-color="#c8a152" offset="0"/>
   <stop stop-color="#d6a0a0" offset="1"/>
  </linearGradient>
 </defs>
 <g>
  <title>Layer 1</title>
  <g id="svg_1">
   <path id="svg_2" fill="url(#a)" d="m129.811,0a68.312,68.312 0 0 0 -25.811,4.945c15.435,6.337 25.811,18.133 25.811,31.686s-10.376,25.35 -25.811,31.687a68.312,68.312 0 0 0 25.811,4.945c28.5,0 51.622,-16.411 51.622,-36.632s-23.127,-36.631 -51.622,-36.631z"/>
   <g id="svg_3">
    <path id="svg_4" fill="none" d="m19.5,18l144.228,0l0,99.292l-144.228,0l0,-99.292z"/>
    <path id="svg_5" stroke="#707070" fill="#fff" d="m116.844,40.463c-4.144,-19.685 -22.355,-34.463 -44.23,-34.463c-17.367,0 -32.451,9.357 -39.963,23.051c-18.089,1.826 -32.151,16.376 -32.151,34.007c0,18.886 16.166,34.234 36.057,34.234l78.124,0c16.586,0 30.048,-12.781 30.048,-28.529c-0.001,-15.063 -12.32,-27.273 -27.885,-28.3z"/>
   </g>
  </g>
  <g>

   <g transform="translate(-92 -166)">
    <g transform="translate(283 215)">
     <path fill="none" d="m0.58687,0.87069l24,0l0,24l-24,0l0,-24z"/>
     <g transform="translate(-82 -51)">
      <path fill="url(#svg_6)" transform="translate(0 0)" d="m30.89787,2.87069a68.312,68.312 0 0 0 -25.811,4.945c15.435,6.337 25.811,18.133 25.811,31.686s-10.376,25.35 -25.811,31.687a68.312,68.312 0 0 0 25.811,4.945c28.5,0 51.622,-16.411 51.622,-36.632s-23.127,-36.631 -51.622,-36.631z"/>
     </g>
    </g>
    <g transform="translate(111 183)">
     <path fill="none" d="m0.58687,0.87069l144.228,0l0,99.292l-144.228,0l0,-99.292z"/>
     <path fill="#fff" transform="translate(-19 -16)" d="m116.93087,39.33369c-4.144,-19.685 -22.355,-34.463 -44.23,-34.463c-17.367,0 -32.451,9.357 -39.963,23.051c-18.089,1.826 -32.151,16.376 -32.151,34.007c0,18.886 16.166,34.234 36.057,34.234l78.124,0c16.586,0 30.048,-12.781 30.048,-28.529c-0.001,-15.063 -12.32,-27.273 -27.885,-28.3z"/>
    </g>
   </g>
  </g>
 </g>
</svg>