<svg xmlns="http://www.w3.org/2000/svg" xmlns:xlink="http://www.w3.org/1999/xlink" width="181.433" height="117.292" viewBox="0 0 181.433 117.292"><defs><linearGradient id="a" x1="0.5" x2="0.895" y2="1" gradientUnits="objectBoundingBox"><stop offset="0" stop-color="#c8a152"/><stop offset="1" stop-color="#d6a0a0"/></linearGradient></defs><g transform="translate(-105.5 -155)"><path d="M30.311,2A68.312,68.312,0,0,0,4.5,6.945c15.435,6.337,25.811,18.133,25.811,31.686S19.935,63.981,4.5,70.318a68.312,68.312,0,0,0,25.811,4.945c28.5,0,51.622-16.411,51.622-36.632S58.806,2,30.311,2Z" transform="translate(205 153)" fill="url(#a)"/><g transform="translate(125 173)"><path d="M0,0H144.228V99.292H0Z" fill="none"/><path d="M116.344,38.463C112.2,18.778,93.989,4,72.114,4,54.747,4,39.663,13.357,32.151,27.051,14.062,28.877,0,43.427,0,61.058,0,79.944,16.166,95.292,36.057,95.292h78.124c16.586,0,30.048-12.781,30.048-28.529C144.228,51.7,131.909,39.49,116.344,38.463Z" transform="translate(-19 -16)" fill="#fff" stroke="#707070" stroke-width="1"/></g></g></svg>