<?xml version="1.0" encoding="utf-8"?>
<!-- Generator: Adobe Illustrator 24.1.2, SVG Export Plug-In . SVG Version: 6.00 Build 0)  -->
<svg version="1.1" id="Layer_1" xmlns="http://www.w3.org/2000/svg" xmlns:xlink="http://www.w3.org/1999/xlink" x="0px" y="0px"
	 viewBox="0 0 217.7 129.3" style="enable-background:new 0 0 217.7 129.3;" xml:space="preserve">
<style type="text/css">
	.st0{fill:#FFFFFF;}
	.st1{fill:#FFFFFF;stroke:#707070;}
</style>
<path class="st0" d="M189.6,44.5C185.4,24.8,167.2,10,145.4,10c-17.4,0-32.5,9.4-40,23.1c-18.1,1.8-32.2,16.4-32.2,34
	c0,18.9,16.2,34.2,36.1,34.2h78.1c16.6,0,30-12.8,30-28.5C217.5,57.7,205.2,45.5,189.6,44.5z"/>
<path class="st1" d="M116.6,62.5C112.4,42.8,94.2,28,72.4,28c-17.4,0-32.5,9.4-40,23.1c-18.1,1.8-32.2,16.4-32.2,34
	c0,18.9,16.2,34.2,36.1,34.2h78.1c16.6,0,30-12.8,30-28.5C144.5,75.7,132.2,63.5,116.6,62.5z"/>
</svg>
