<svg xmlns="http://www.w3.org/2000/svg" width="217.728" height="129.292" viewBox="0 0 217.728 129.292"><g transform="translate(-79.5 -148)"><path d="M116.344,38.463C112.2,18.778,93.989,4,72.114,4,54.747,4,39.663,13.357,32.151,27.051,14.062,28.877,0,43.427,0,61.058,0,79.944,16.166,95.292,36.057,95.292h78.124c16.586,0,30.048-12.781,30.048-28.529C144.228,51.7,131.909,39.49,116.344,38.463Z" transform="translate(153 144)" fill="#fff"/><g transform="translate(99 178)"><path d="M0,0H144.228V99.292H0Z" fill="none"/><path d="M116.344,38.463C112.2,18.778,93.989,4,72.114,4,54.747,4,39.663,13.357,32.151,27.051,14.062,28.877,0,43.427,0,61.058,0,79.944,16.166,95.292,36.057,95.292h78.124c16.586,0,30.048-12.781,30.048-28.529C144.228,51.7,131.909,39.49,116.344,38.463Z" transform="translate(-19 -16)" fill="#fff" stroke="#707070" stroke-width="1"/></g></g></svg>