<?xml version="1.0" encoding="utf-8"?>
<!-- Generator: Adobe Illustrator 24.1.2, SVG Export Plug-In . SVG Version: 6.00 Build 0)  -->
<svg version="1.1" id="Layer_1" xmlns="http://www.w3.org/2000/svg" xmlns:xlink="http://www.w3.org/1999/xlink" x="0px" y="0px"
	 viewBox="0 0 248.7 134.5" style="enable-background:new 0 0 248.7 134.5;" xml:space="preserve">
<style type="text/css">
	.st0{fill:none;}
	.st1{fill:url(#SVGID_2_);}
	.st2{fill:#FFFFFF;stroke:#888A8C;stroke-miterlimit:10;}
	.st3{fill:#FFFFFF;stroke:#707070;}
</style>
<pattern  y="134.5" width="309" height="146" patternUnits="userSpaceOnUse" id="SVGID_1_" viewBox="0 -146 309 146" style="overflow:visible;">
	<g>
		<rect y="-146" class="st0" width="309" height="146"/>
		<g>
			<rect y="-146" class="st0" width="309" height="146"/>
			
				<image style="overflow:visible;enable-background:new    ;" width="309" height="147" xlink:href="E71C2C43.png"  transform="matrix(0.9932 0 0 0.9932 1.051 -146)">
			</image>
		</g>
	</g>
</pattern>
<pattern  id="SVGID_2_" xlink:href="#SVGID_1_" patternTransform="matrix(0.4401 0 0 0.4384 -8901.6797 7158.665)">
</pattern>
<rect x="41" y="45.9" class="st1" width="166" height="88.6"/>
<path class="st2" d="M211.1,34.7C206.9,15,188.7,0.3,166.9,0.3c-17.4,0-32.5,9.4-40,23.1c-18.1,1.8-32.2,16.4-32.2,34
	c0,18.9,16.2,34.2,36.1,34.2h78.1c16.6,0,30-12.8,30-28.5C239,48,226.7,35.7,211.1,34.7z"/>
<path class="st3" d="M126.1,48.7C122,29,103.7,14.2,81.9,14.2c-17.4,0-32.5,9.4-40,23.1c-18.1,1.8-32.2,16.4-32.2,34
	c0,18.9,16.2,34.2,36.1,34.2h78.1c16.6,0,30-12.8,30-28.5C154,62,141.7,49.7,126.1,48.7z"/>
</svg>
