<?xml version="1.0" encoding="utf-8"?>
<!-- Generator: Adobe Illustrator 24.1.2, SVG Export Plug-In . SVG Version: 6.00 Build 0)  -->
<svg version="1.1" id="Layer_1" xmlns="http://www.w3.org/2000/svg" xmlns:xlink="http://www.w3.org/1999/xlink" x="0px" y="0px"
	 viewBox="0 0 248.7 134.5" style="enable-background:new 0 0 248.7 134.5;" xml:space="preserve">
<style type="text/css">
	.st0{fill:none;stroke:#4379BD;stroke-width:6;stroke-linecap:round;stroke-miterlimit:10;}
	.st1{display:none;fill:none;stroke:#4379BD;stroke-width:6;stroke-linecap:round;stroke-miterlimit:10;}
	.st2{fill:#FFFFFF;stroke:#888A8C;stroke-miterlimit:10;}
	.st3{fill:#FFFFFF;stroke:#707070;}
</style>
<g>
	<line class="st0" x1="45.6" y1="97.7" x2="34.9" y2="111.1"/>
	<line class="st1" x1="24.9" y1="104.4" x2="14.2" y2="117.8"/>
	<line class="st0" x1="59.1" y1="104.4" x2="48.4" y2="117.8"/>
	<line class="st0" x1="79.4" y1="97.7" x2="68.7" y2="111.1"/>
	<line class="st0" x1="90.1" y1="104.4" x2="79.4" y2="117.8"/>
	<line class="st0" x1="111.2" y1="97.7" x2="100.6" y2="111.1"/>
	<line class="st0" x1="121.9" y1="106.9" x2="111.2" y2="120.2"/>
	<line class="st1" x1="24.9" y1="104.4" x2="14.2" y2="117.8"/>
</g>
<g>
	<line class="st0" x1="133.1" y1="84.4" x2="122.4" y2="97.7"/>
	<line class="st0" x1="112.4" y1="91.1" x2="101.7" y2="104.4"/>
	<line class="st0" x1="146.6" y1="91.1" x2="135.9" y2="104.4"/>
	<line class="st0" x1="166.9" y1="84.4" x2="156.2" y2="97.7"/>
	<line class="st0" x1="177.5" y1="91.1" x2="166.9" y2="104.4"/>
	<line class="st0" x1="198.7" y1="84.4" x2="188.1" y2="97.7"/>
	<line class="st0" x1="209.4" y1="93.5" x2="198.7" y2="106.9"/>
	<line class="st0" x1="112.4" y1="91.1" x2="101.7" y2="104.4"/>
</g>
<path class="st2" d="M211.1,34.7C206.9,15,188.7,0.3,166.9,0.3c-17.4,0-32.5,9.4-40,23.1c-18.1,1.8-32.2,16.4-32.2,34
	c0,18.9,16.2,34.2,36.1,34.2h78.1c16.6,0,30-12.8,30-28.5C239,48,226.7,35.7,211.1,34.7z"/>
<path class="st3" d="M126.1,48.7C122,29,103.7,14.2,81.9,14.2c-17.4,0-32.5,9.4-40,23.1c-18.1,1.8-32.2,16.4-32.2,34
	c0,18.9,16.2,34.2,36.1,34.2h78.1c16.6,0,30-12.8,30-28.5C154,62,141.7,49.7,126.1,48.7z"/>
</svg>
