<?xml version="1.0" encoding="utf-8"?>
<!-- Generator: Adobe Illustrator 24.1.2, SVG Export Plug-In . SVG Version: 6.00 Build 0)  -->
<svg version="1.1" id="Layer_1" xmlns="http://www.w3.org/2000/svg" xmlns:xlink="http://www.w3.org/1999/xlink" x="0px" y="0px"
	 viewBox="0 0 144.2 91.3" style="enable-background:new 0 0 144.2 91.3;" xml:space="preserve">
<style type="text/css">
	.st0{fill:#FFFFFF;stroke:#000000;stroke-miterlimit:10;}
	.st1{fill:none;stroke:#000000;stroke-width:4;stroke-miterlimit:10;}
	.st2{stroke:#000000;stroke-width:4;stroke-miterlimit:10;}
</style>
<path class="st0" d="M116.3,34.5C112.2,14.8,94,0,72.1,0c-17.4,0-32.5,9.4-40,23.1C14.1,24.9,0,39.4,0,57.1
	c0,18.9,16.2,34.2,36.1,34.2h78.1c16.6,0,30-12.8,30-28.5C144.2,47.7,131.9,35.5,116.3,34.5z"/>
<line class="st1" x1="47.2" y1="31" x2="34" y2="45.6"/>
<line class="st1" x1="34" y1="31.7" x2="48.6" y2="44.9"/>
<line class="st1" x1="99.8" y1="30.8" x2="86" y2="44.9"/>
<line class="st1" x1="86.5" y1="31" x2="100.6" y2="44.8"/>
<ellipse class="st2" cx="66.6" cy="61.7" rx="9" ry="6"/>
</svg>
