<?xml version="1.0" encoding="utf-8"?>
<!-- Generator: Adobe Illustrator 24.1.2, SVG Export Plug-In . SVG Version: 6.00 Build 0)  -->
<svg version="1.1" id="Layer_1" xmlns="http://www.w3.org/2000/svg" xmlns:xlink="http://www.w3.org/1999/xlink" x="0px" y="0px"
	 viewBox="0 0 208 124" style="enable-background:new 0 0 208 124;" xml:space="preserve">
<style type="text/css">
	.st0{fill:none;stroke:#4379BD;stroke-width:6;stroke-linecap:round;stroke-miterlimit:10;}
	.st1{fill:url(#SVGID_1_);}
	.st2{fill:#FFFFFF;stroke:#707070;}
</style>
<g>
	<line class="st0" x1="52.6" y1="90" x2="41.9" y2="103.4"/>
	<line class="st0" x1="31.9" y1="96.7" x2="21.2" y2="110.1"/>
	<line class="st0" x1="66.1" y1="96.7" x2="55.4" y2="110.1"/>
	<line class="st0" x1="86.4" y1="90" x2="75.7" y2="103.4"/>
	<line class="st0" x1="97" y1="96.7" x2="86.4" y2="110.1"/>
	<line class="st0" x1="118.2" y1="90" x2="107.6" y2="103.4"/>
	<line class="st0" x1="128.9" y1="99.2" x2="118.2" y2="112.5"/>
	<line class="st0" x1="31.9" y1="96.7" x2="21.2" y2="110.1"/>
</g>
<linearGradient id="SVGID_1_" gradientUnits="userSpaceOnUse" x1="-198.2026" y1="454.4695" x2="-198.7026" y2="455.0445" gradientTransform="matrix(100 0 0 -90 20007 40977)">
	<stop  offset="0" style="stop-color:#C8A152"/>
	<stop  offset="1" style="stop-color:#D6A0A0"/>
</linearGradient>
<ellipse class="st1" cx="158" cy="45" rx="50" ry="45"/>
<path class="st2" d="M122.3,44.5C118.2,24.8,100,10,78.1,10c-17.4,0-32.5,9.4-40,23.1C20.1,34.9,6,49.4,6,67.1
	c0,18.9,16.2,34.2,36.1,34.2h78.1c16.6,0,30-12.8,30-28.5C150.2,57.7,137.9,45.5,122.3,44.5z"/>
</svg>
