<?xml version="1.0" encoding="utf-8"?>
<!-- Generator: Adobe Illustrator 24.1.2, SVG Export Plug-In . SVG Version: 6.00 Build 0)  -->
<svg version="1.1" id="Layer_1" xmlns="http://www.w3.org/2000/svg" xmlns:xlink="http://www.w3.org/1999/xlink" x="0px" y="0px"
	 viewBox="0 0 186.4 121.5" style="enable-background:new 0 0 186.4 121.5;" xml:space="preserve">
<style type="text/css">
	.st0{fill:url(#SVGID_1_);stroke:#707070;}
	.st1{fill:none;stroke:#4379BD;stroke-width:6;stroke-linecap:round;stroke-miterlimit:10;}
	.st2{display:none;fill:none;stroke:#4379BD;stroke-width:6;stroke-linecap:round;stroke-miterlimit:10;}
	.st3{fill:#FFFFFF;stroke:#707070;}
</style>
<linearGradient id="SVGID_1_" gradientUnits="userSpaceOnUse" x1="-208.9944" y1="453.3494" x2="-208.5994" y2="452.3494" gradientTransform="matrix(77.433 0 0 -73.2642 16312.2959 33221.5234)">
	<stop  offset="0" style="stop-color:#C8A152"/>
	<stop  offset="1" style="stop-color:#D6A0A0"/>
</linearGradient>
<path class="st0" d="M134.3,0.5c-8.8,0-17.6,1.6-25.8,4.9c15.4,6.3,25.8,18.1,25.8,31.7s-10.4,25.3-25.8,31.7c8.2,3.3,17,5,25.8,4.9
	c28.5,0,51.6-16.4,51.6-36.6S162.8,0.5,134.3,0.5z"/>
<g>
	<line class="st1" x1="34.9" y1="85.2" x2="24.2" y2="98.5"/>
	<line class="st2" x1="14.2" y1="91.8" x2="3.5" y2="105.2"/>
	<line class="st1" x1="48.4" y1="91.8" x2="37.7" y2="105.2"/>
	<line class="st1" x1="68.7" y1="85.2" x2="58" y2="98.5"/>
	<line class="st1" x1="79.4" y1="91.8" x2="68.7" y2="105.2"/>
	<line class="st1" x1="100.5" y1="85.2" x2="89.9" y2="98.5"/>
	<line class="st1" x1="111.2" y1="94.3" x2="100.5" y2="107.7"/>
	<line class="st2" x1="14.2" y1="91.8" x2="3.5" y2="105.2"/>
</g>
<path class="st3" d="M118.3,36C114.2,16.3,96,1.5,74.1,1.5c-17.4,0-32.5,9.4-40,23.1C16.1,26.4,2,40.9,2,58.6
	c0,18.9,16.2,34.2,36.1,34.2h78.1c16.6,0,30-12.8,30-28.5C146.2,49.2,133.9,37,118.3,36z"/>
</svg>
