<?xml version="1.0" encoding="utf-8"?>
<!-- Generator: Adobe Illustrator 24.1.2, SVG Export Plug-In . SVG Version: 6.00 Build 0)  -->
<svg version="1.1" id="Layer_1" xmlns="http://www.w3.org/2000/svg" xmlns:xlink="http://www.w3.org/1999/xlink" x="0px" y="0px"
	 viewBox="0 0 251.2 146.5" style="enable-background:new 0 0 251.2 146.5;" xml:space="preserve">
<style type="text/css">
	.st0{fill:#FFF700;}
	.st1{fill:none;stroke:#4379BD;stroke-width:6;stroke-linecap:round;stroke-miterlimit:10;}
	.st2{display:none;fill:none;stroke:#4379BD;stroke-width:6;stroke-linecap:round;stroke-miterlimit:10;}
	.st3{fill:#FFFFFF;}
	.st4{fill:#FFFFFF;stroke:#707070;}
</style>
<path class="st0" d="M145,69.1v42.5h14.9v34.8l34.7-46.4h-19.8l19.8-30.9H145z"/>
<g>
	<line class="st1" x1="35.3" y1="113.7" x2="24.7" y2="127"/>
	<line class="st2" x1="14.7" y1="120.3" x2="4" y2="133.7"/>
	<line class="st1" x1="48.9" y1="120.3" x2="38.2" y2="133.7"/>
	<line class="st1" x1="69.1" y1="113.7" x2="58.5" y2="127"/>
	<line class="st1" x1="79.8" y1="120.3" x2="69.1" y2="133.7"/>
	<line class="st1" x1="101" y1="113.7" x2="90.3" y2="127"/>
	<line class="st1" x1="111.7" y1="122.8" x2="101" y2="136.2"/>
	<line class="st2" x1="14.7" y1="120.3" x2="4" y2="133.7"/>
</g>
<path class="st3" d="M204.3,35C200.2,15.3,182,0.5,160.1,0.5c-17.4,0-32.5,9.4-40,23.1C102.1,25.4,88,39.9,88,57.6
	c0,18.9,16.2,34.2,36.1,34.2h78.1c16.6,0,30-12.8,30-28.5C232.2,48.2,219.9,36,204.3,35z"/>
<path class="st4" d="M120.3,64C116.2,44.3,98,29.5,76.1,29.5c-17.4,0-32.5,9.4-40,23.1C18.1,54.4,4,68.9,4,86.6
	c0,18.9,16.2,34.2,36.1,34.2h78.1c16.6,0,30-12.8,30-28.5C148.2,77.2,135.9,65,120.3,64z"/>
</svg>
