<svg xmlns="http://www.w3.org/2000/svg" width="94.013" height="79.101" viewBox="0 0 94.013 79.101"><g transform="translate(0)"><path d="M92.054,13.183c-5.241,0-7.928-2.619-10.3-4.935C79.629,6.183,77.8,4.394,74.019,4.394S68.41,6.183,66.287,8.249c-2.37,2.316-5.057,4.935-10.3,4.935s-7.924-2.623-10.3-4.935c-2.12-2.07-3.952-3.854-7.725-3.854s-5.594,1.785-7.713,3.854c-2.37,2.312-5.053,4.935-10.291,4.935S12.041,10.56,9.675,8.249C7.556,6.179,5.727,4.394,1.959,4.394A2.089,2.089,0,0,1,0,2.2,2.089,2.089,0,0,1,1.959,0C7.192,0,9.875,2.623,12.245,4.935c2.12,2.07,3.949,3.854,7.717,3.854S25.564,7,27.683,4.935C30.049,2.619,32.732,0,37.965,0S45.886,2.619,48.26,4.935C50.379,7,52.212,8.789,55.989,8.789S61.6,7,63.721,4.935C66.091,2.619,68.782,0,74.019,0s7.929,2.619,10.3,4.935C86.445,7,88.278,8.789,92.054,8.789a2.089,2.089,0,0,1,1.959,2.2,2.089,2.089,0,0,1-1.959,2.2Zm0,0" fill="rgba(255,255,255,0.36)"/><path d="M92.054,119.851c-5.241,0-7.928-2.619-10.3-4.935-2.123-2.066-3.956-3.854-7.733-3.854s-5.609,1.789-7.732,3.854c-2.37,2.316-5.057,4.935-10.3,4.935s-7.924-2.624-10.3-4.935c-2.12-2.07-3.952-3.854-7.725-3.854s-5.594,1.784-7.713,3.854c-2.37,2.311-5.053,4.935-10.291,4.935s-7.921-2.624-10.287-4.935c-2.119-2.07-3.949-3.854-7.716-3.854a2.212,2.212,0,0,1,0-4.394c5.233,0,7.916,2.623,10.286,4.935,2.12,2.07,3.949,3.853,7.717,3.853s5.6-1.788,7.721-3.853c2.366-2.316,5.05-4.935,10.283-4.935s7.921,2.619,10.295,4.935c2.119,2.066,3.952,3.853,7.728,3.853s5.609-1.788,7.733-3.853c2.37-2.316,5.061-4.935,10.3-4.935s7.929,2.619,10.3,4.935c2.123,2.066,3.956,3.853,7.732,3.853a2.212,2.212,0,0,1,0,4.4Zm0,0" transform="translate(0 -84.695)" fill="rgba(255,255,255,0.36)"/><path d="M92.054,226.515c-5.241,0-7.928-2.619-10.3-4.935-2.123-2.066-3.956-3.853-7.733-3.853s-5.609,1.788-7.732,3.853c-2.37,2.316-5.057,4.935-10.3,4.935s-7.924-2.623-10.3-4.935c-2.12-2.07-3.952-3.853-7.725-3.853s-5.6,1.784-7.717,3.853c-2.366,2.312-5.049,4.935-10.286,4.935s-7.916-2.623-10.287-4.935c-2.119-2.07-3.949-3.853-7.716-3.853a2.212,2.212,0,0,1,0-4.4c5.233,0,7.916,2.624,10.286,4.935,2.12,2.07,3.949,3.854,7.717,3.854s5.6-1.789,7.721-3.854c2.366-2.316,5.05-4.935,10.283-4.935s7.921,2.619,10.295,4.935c2.119,2.066,3.952,3.854,7.728,3.854s5.609-1.789,7.733-3.854c2.37-2.316,5.061-4.935,10.3-4.935s7.929,2.619,10.3,4.935c2.123,2.066,3.956,3.854,7.732,3.854a2.212,2.212,0,0,1,0,4.394Zm0,0" transform="translate(0 -169.388)" fill="rgba(255,255,255,0.36)"/><path d="M92.054,333.183c-5.241,0-7.928-2.619-10.3-4.935-2.123-2.066-3.956-3.854-7.733-3.854s-5.609,1.789-7.732,3.854c-2.37,2.316-5.057,4.935-10.3,4.935s-7.924-2.623-10.3-4.935c-2.12-2.07-3.952-3.854-7.725-3.854s-5.6,1.785-7.717,3.854c-2.366,2.312-5.049,4.935-10.286,4.935s-7.916-2.623-10.287-4.935c-2.119-2.07-3.949-3.854-7.716-3.854a2.212,2.212,0,0,1,0-4.394c5.233,0,7.916,2.623,10.286,4.935,2.12,2.07,3.949,3.854,7.717,3.854s5.6-1.789,7.721-3.854c2.366-2.316,5.05-4.935,10.283-4.935s7.921,2.619,10.295,4.935c2.119,2.066,3.952,3.854,7.728,3.854S61.6,327,63.722,324.935c2.37-2.316,5.061-4.935,10.3-4.935s7.929,2.619,10.3,4.935c2.123,2.066,3.956,3.854,7.732,3.854a2.212,2.212,0,0,1,0,4.394Zm0,0" transform="translate(0 -254.083)" fill="rgba(255,255,255,0.36)"/></g></svg>